<svg width="24" height="23" viewBox="0 0 24 23" fill="none" xmlns="http://www.w3.org/2000/svg">
<path d="M17.3198 8.91052C17.2296 8.17587 17.0044 7.59903 16.6044 7.08809C16.085 6.43016 15.4212 6.03619 14.4385 5.80248C13.7981 5.64671 13.5394 5.66459 13.3077 5.8767C13.092 6.07542 13.0499 6.47379 13.2147 6.73177C13.3307 6.91901 13.4644 6.98608 13.8365 7.05929C14.3319 7.15067 14.6743 7.26927 14.9857 7.44779C15.6468 7.83043 15.9546 8.42922 15.9876 9.39862C16.003 9.85378 16.0422 9.99371 16.2008 10.1552C16.4947 10.4502 17.0178 10.3929 17.2397 10.0397C17.3211 9.90662 17.3335 9.84868 17.3421 9.53961C17.3478 9.34827 17.3396 9.06346 17.3198 8.91052V8.91052Z" fill="#BB8C5F"/>
<path d="M19.9088 9.73884C19.7782 7.48809 18.9001 5.67726 17.3285 4.40319C16.443 3.6873 15.3726 3.19503 14.1994 2.95562C13.7696 2.87 12.9784 2.8006 12.8426 2.8403C12.7145 2.87706 12.5333 3.01611 12.4526 3.14185C12.3672 3.27822 12.3479 3.58267 12.4208 3.75878C12.5384 4.05318 12.7571 4.15719 13.3697 4.21092C14.3141 4.29375 15.2881 4.62637 16.0241 5.1188C16.8644 5.67946 17.5323 6.44632 17.9644 7.34744C18.3377 8.1217 18.5673 9.23748 18.561 10.2367C18.5588 10.598 18.6145 10.8021 18.7595 10.9513C18.9783 11.1807 19.2973 11.2309 19.5788 11.0785C19.8907 10.9141 19.9637 10.6253 19.9088 9.73884V9.73884Z" fill="#BB8C5F"/>
<path d="M22.7738 18.4066C22.7299 18.278 22.6275 18.0795 22.5542 17.9656C22.093 17.2674 19.615 15.3233 18.3778 14.6875C17.6714 14.3237 17.148 14.2025 16.76 14.3163C16.3427 14.434 16.1231 14.6287 15.424 15.4997C15.1422 15.8488 14.853 16.1759 14.7761 16.2273C14.5858 16.3596 14.2124 16.4663 13.9489 16.4663C13.3376 16.4625 12.2286 16.0656 11.3757 15.5438C10.7132 15.1396 9.86405 14.4156 9.21248 13.699C8.44379 12.8574 7.92043 12.115 7.50677 11.2771C6.97239 10.2004 6.83696 9.54252 7.06021 9.06108C7.11513 8.93982 7.18835 8.81123 7.22124 8.77075C7.25421 8.73405 7.5983 8.45104 7.97892 8.14233C8.72566 7.54701 8.84644 7.41104 8.98552 7.00311C9.16121 6.4849 9.11366 5.95571 8.84279 5.42286C8.63413 5.01859 8.08876 4.1366 7.69346 3.56699C7.17004 2.81732 5.86697 1.21502 5.60705 0.998129C5.13854 0.615967 4.53831 0.549776 3.87573 0.807079C3.17667 1.07904 1.86625 2.13742 1.30621 2.87611C0.801089 3.54494 0.607156 4.019 0.577843 4.64375C0.552239 5.15823 0.596147 5.37138 0.867014 6.02923C2.98633 11.1889 6.14878 15.3086 10.4936 18.5794C12.763 20.2882 15.1165 21.5892 17.5579 22.4786C18.9818 22.9967 19.6004 23.0224 20.3288 22.5962C20.6362 22.4124 21.3976 21.6296 21.8222 21.06C22.5249 20.1118 22.7848 19.6745 22.858 19.3254C22.9093 19.0865 22.869 18.6713 22.7738 18.4066V18.4066Z" fill="#BB8C5F"/>
<path d="M22.5444 10.2559C22.4975 8.98277 22.2837 7.93848 21.8379 6.77418C21.3977 5.6289 20.9522 4.88154 20.1108 3.87072C19.3154 2.92295 18.6975 2.38179 17.7177 1.77941C16.3506 0.940122 14.6868 0.384712 12.8223 0.15113C12.1865 0.0694943 12.0426 0.0753255 11.8476 0.205813C11.4695 0.453004 11.4746 1.06956 11.8538 1.31304C11.9793 1.39049 12.0907 1.41871 12.5993 1.48545C13.3801 1.59083 13.8821 1.69014 14.4779 1.85309C16.8139 2.49327 18.6104 3.80183 19.8114 5.74432C20.8164 7.36341 21.2336 8.98261 21.1744 11.0506C21.1538 11.7497 21.1687 11.8728 21.2753 12.0407C21.4795 12.3538 22.0179 12.4158 22.2941 12.156C22.4659 11.9976 22.4983 11.8788 22.5322 11.2804C22.5484 10.9682 22.5519 10.5074 22.5444 10.2559V10.2559Z" fill="#BB8C5F"/>
</svg>
